<?xml version="1.0" encoding="UTF-8" standalone="no"?>
<!-- Created with Inkscape (http://www.inkscape.org/) -->

<svg
   width="200mm"
   height="200mm"
   viewBox="0 0 200 200"
   version="1.1"
   id="svg1"
   inkscape:export-filename="zoot.png"
   inkscape:export-xdpi="120.95238"
   inkscape:export-ydpi="120.95238"
   inkscape:version="1.4.3 (0d15f75042, 2025-12-25)"
   sodipodi:docname="zoot.svg"
   xmlns:inkscape="http://www.inkscape.org/namespaces/inkscape"
   xmlns:sodipodi="http://sodipodi.sourceforge.net/DTD/sodipodi-0.dtd"
   xmlns="http://www.w3.org/2000/svg"
   xmlns:svg="http://www.w3.org/2000/svg">
  <sodipodi:namedview
     id="namedview1"
     pagecolor="#ffffff"
     bordercolor="#999999"
     borderopacity="1"
     inkscape:showpageshadow="2"
     inkscape:pageopacity="0"
     inkscape:pagecheckerboard="0"
     inkscape:deskcolor="#d1d1d1"
     inkscape:document-units="mm"
     inkscape:zoom="0.69124489"
     inkscape:cx="379.02631"
     inkscape:cy="290.05639"
     inkscape:window-width="1916"
     inkscape:window-height="1042"
     inkscape:window-x="2"
     inkscape:window-y="36"
     inkscape:window-maximized="1"
     inkscape:current-layer="layer3"
     inkscape:export-bgcolor="#8f8f8fff" />
  <defs
     id="defs1">
    <inkscape:path-effect
       effect="skeletal"
       id="path-effect9"
       is_visible="true"
       lpeversion="1"
       pattern="M 0,4.9921383 C 0,2.236478 2.236478,0 4.9921383,0 c 2.7556604,0 4.9921384,2.236478 4.9921384,4.9921383 0,2.7556604 -2.236478,4.9921384 -4.9921384,4.9921384 C 2.236478,9.9842767 0,7.7477987 0,4.9921383 Z"
       copytype="single_stretched"
       prop_scale="0.17866306"
       scale_y_rel="false"
       spacing="0"
       normal_offset="0"
       tang_offset="0"
       prop_units="false"
       vertical_pattern="false"
       hide_knot="false"
       fuse_tolerance="0" />
    <inkscape:path-effect
       effect="mirror_symmetry"
       start_point="82.5,81.472676"
       end_point="82.5,96.490559"
       center_point="82.5,88.981617"
       id="path-effect8"
       is_visible="true"
       lpeversion="1.2"
       lpesatellites=""
       mode="free"
       discard_orig_path="false"
       fuse_paths="true"
       oposite_fuse="false"
       split_items="false"
       split_open="false"
       link_styles="false" />
    <inkscape:path-effect
       effect="skeletal"
       id="path-effect7"
       is_visible="true"
       lpeversion="1"
       pattern="M 0,4.9921383 C 0,2.236478 2.236478,0 4.9921383,0 c 2.7556604,0 4.9921384,2.236478 4.9921384,4.9921383 0,2.7556604 -2.236478,4.9921384 -4.9921384,4.9921384 C 2.236478,9.9842767 0,7.7477987 0,4.9921383 Z"
       copytype="single_stretched"
       prop_scale="0.319"
       scale_y_rel="false"
       spacing="0"
       normal_offset="0"
       tang_offset="0"
       prop_units="false"
       vertical_pattern="false"
       hide_knot="false"
       fuse_tolerance="0" />
    <inkscape:path-effect
       effect="skeletal"
       id="path-effect6"
       is_visible="true"
       lpeversion="1"
       pattern="M 0,4.9921383 C 0,2.236478 2.236478,0 4.9921383,0 c 2.7556604,0 4.9921384,2.236478 4.9921384,4.9921383 0,2.7556604 -2.236478,4.9921384 -4.9921384,4.9921384 C 2.236478,9.9842767 0,7.7477987 0,4.9921383 Z"
       copytype="single_stretched"
       prop_scale="0.17866306"
       scale_y_rel="false"
       spacing="0"
       normal_offset="0"
       tang_offset="0"
       prop_units="false"
       vertical_pattern="false"
       hide_knot="false"
       fuse_tolerance="0" />
    <inkscape:path-effect
       effect="skeletal"
       id="path-effect5"
       is_visible="true"
       lpeversion="1"
       pattern="M 0,4.9921383 C 0,2.236478 2.236478,0 4.9921383,0 c 2.7556604,0 4.9921384,2.236478 4.9921384,4.9921383 0,2.7556604 -2.236478,4.9921384 -4.9921384,4.9921384 C 2.236478,9.9842767 0,7.7477987 0,4.9921383 Z"
       copytype="single_stretched"
       prop_scale="1"
       scale_y_rel="false"
       spacing="0"
       normal_offset="0"
       tang_offset="0"
       prop_units="false"
       vertical_pattern="false"
       hide_knot="false"
       fuse_tolerance="0" />
    <inkscape:path-effect
       effect="taper_stroke"
       start_shape="center | center"
       end_shape="center | center"
       id="path-effect1"
       is_visible="true"
       lpeversion="1"
       stroke_width="10"
       subpath="1"
       attach_start="0.2"
       end_offset="0.2"
       start_smoothing="0.5"
       end_smoothing="0.5"
       jointype="extrapolated"
       miter_limit="100" />
    <inkscape:path-effect
       effect="mirror_symmetry"
       start_point="0,124.87084"
       end_point="200,124.87084"
       center_point="100,124.87084"
       id="path-effect2"
       is_visible="true"
       lpeversion="1.2"
       lpesatellites=""
       mode="horizontal"
       discard_orig_path="false"
       fuse_paths="false"
       oposite_fuse="false"
       split_items="false"
       split_open="false"
       link_styles="false" />
    <filter
       style="color-interpolation-filters:sRGB;"
       inkscape:label="Drop Shadow"
       id="filter4"
       x="-0.14703223"
       y="-0.27080222"
       width="1.2940645"
       height="1.5416044">
      <feFlood
         result="flood"
         in="SourceGraphic"
         flood-opacity="0.498039"
         flood-color="rgb(0,0,0)"
         id="feFlood3" />
      <feGaussianBlur
         result="blur"
         in="SourceGraphic"
         stdDeviation="10.000000"
         id="feGaussianBlur3" />
      <feOffset
         result="offset"
         in="blur"
         dx="0.000000"
         dy="0.000000"
         id="feOffset3" />
      <feComposite
         result="comp1"
         operator="in"
         in="flood"
         in2="offset"
         id="feComposite3" />
      <feComposite
         result="comp2"
         operator="over"
         in="SourceGraphic"
         in2="comp1"
         id="feComposite4" />
    </filter>
    <filter
       style="color-interpolation-filters:sRGB;"
       inkscape:label="Drop Shadow"
       id="filter6"
       x="-0.14703201"
       y="-0.26884241"
       width="1.294064"
       height="1.5376848">
      <feFlood
         result="flood"
         in="SourceGraphic"
         flood-opacity="0.498039"
         flood-color="rgb(0,0,0)"
         id="feFlood4" />
      <feGaussianBlur
         result="blur"
         in="SourceGraphic"
         stdDeviation="10.000000"
         id="feGaussianBlur4" />
      <feOffset
         result="offset"
         in="blur"
         dx="0.000000"
         dy="0.000000"
         id="feOffset4" />
      <feComposite
         result="comp1"
         operator="in"
         in="flood"
         in2="offset"
         id="feComposite5" />
      <feComposite
         result="comp2"
         operator="over"
         in="SourceGraphic"
         in2="comp1"
         id="feComposite6" />
    </filter>
    <inkscape:path-effect
       effect="fill_between_many"
       method="bsplinespiro"
       autoreverse="false"
       close="false"
       join="false"
       linkedpaths="#path1,0,1"
       id="path-effect3" />
  </defs>
  <g
     inkscape:groupmode="layer"
     id="layer3"
     inkscape:label="ZOOT">
    <path
       d="M 78.07189,91.255692 H 18.385284 V 83.056319 L 63.722989,14.808604 H 19.832232 V 5.1622838 H 76.8661 V 13.361656 L 31.528395,81.609371 H 78.07189 Z M 181.6148,48.088409 q 0,13.384269 -4.582,23.392326 -4.46143,9.887478 -13.26369,15.434112 -8.80227,5.546635 -21.8248,5.546635 -13.38427,0 -22.30712,-5.546635 -8.80226,-5.546634 -13.14311,-15.554691 -4.34084,-10.008057 -4.34084,-23.392326 0,-13.263691 4.34084,-23.151169 4.34085,-9.887478 13.14311,-15.4341121 8.92285,-5.5466341 22.4277,-5.5466341 12.90195,0 21.70422,5.5466341 8.80226,5.4260551 13.26369,15.4341121 4.582,9.887478 4.582,23.271748 z m -68.00656,0 q 0,16.278165 6.87301,25.683327 6.873,9.284583 21.46306,9.284583 14.71064,0 21.46306,-9.284583 6.75242,-9.405162 6.75242,-25.683327 0,-16.278166 -6.75242,-25.44217 -6.75242,-9.284583 -21.34248,-9.284583 -14.59006,0 -21.58364,9.284583 -6.87301,9.164004 -6.87301,25.44217 z"
       id="text1"
       style="font-size:120.579px;-inkscape-font-specification:'sans-serif, Normal';letter-spacing:13.2292px;word-spacing:0px;fill:#ffffff;stroke:#bebebe;stroke-width:0;stroke-opacity:0;filter:url(#filter4)"
       inkscape:label="text1"
       aria-label="ZO" />
    <path
       d="m 98.42589,152.84503 q 0,13.48184 -4.615404,23.56285 -4.493946,9.95956 -13.36038,15.54663 -8.866434,5.58707 -21.983898,5.58707 -13.481838,0 -22.46973,-5.58707 -8.866434,-5.58707 -13.238922,-15.66808 -4.372488,-10.08102 -4.372488,-23.56286 0,-13.36038 4.372488,-23.31993 4.372488,-9.95956 13.238922,-15.54663 8.987892,-5.58706 22.591188,-5.58706 12.996006,0 21.86244,5.58706 8.866434,5.46561 13.36038,15.54663 4.615404,9.95955 4.615404,23.44139 z m -68.502312,0 q 0,16.39683 6.923106,25.87056 6.923106,9.35226 21.619524,9.35226 14.817876,0 21.619524,-9.35226 6.801648,-9.47373 6.801648,-25.87056 0,-16.39683 -6.801648,-25.62764 -6.801648,-9.35226 -21.498066,-9.35226 -14.696418,0 -21.740982,9.35226 -6.923106,9.23081 -6.923106,25.62764 z M 154.65116,196.327 H 143.71994 V 119.20117 H 116.6348 v -9.59519 h 64.98003 v 9.59519 h -26.96367 z"
       id="text2"
       style="font-size:121.458px;-inkscape-font-specification:'sans-serif, Normal';letter-spacing:13.2292px;word-spacing:0px;fill:#ffffff;stroke:#868686;stroke-width:0;stroke-opacity:0;filter:url(#filter6)"
       aria-label="OT" />
  </g>
  <g
     inkscape:groupmode="layer"
     id="layer4"
     inkscape:label="lines">
    <rect
       style="fill:none;stroke:#000000;stroke-width:10;stroke-dasharray:none;stroke-opacity:1"
       id="rect2"
       width="139.18129"
       height="139.1817"
       x="30.409355"
       y="30.409149" />
    <path
       style="fill:none;stroke:#000000;stroke-width:1.77865;stroke-dasharray:none;stroke-opacity:1"
       d="m 100,174.22237 v -30.43943 m 0,-68.263624 v 30.439434"
       id="path2"
       inkscape:path-effect="#path-effect2"
       inkscape:original-d="M 100,174.22237 V 143.78294"
       transform="translate(0,-24.870843)" />
    <path
       style="fill:none;stroke:#000000;stroke-width:2.16626;stroke-dasharray:none;stroke-opacity:1"
       d="M 44.070661,100 H 155.92934"
       id="path3" />
  </g>
  <g
     inkscape:groupmode="layer"
     id="layer2"
     inkscape:label="text">
    <g
       id="g18"
       transform="translate(-1.7606105)">
      <g
         id="g12"
         transform="matrix(1,0,-0.17632698,1,9.5633267,20.010889)">
        <rect
           style="fill:#000000;fill-opacity:1;stroke:#000000;stroke-width:0.741442;stroke-linecap:butt;stroke-linejoin:round;stroke-dasharray:none;stroke-opacity:1"
           id="rect11"
           width="2.7585583"
           height="14.683558"
           x="85.127335"
           y="82.344147" />
        <path
           style="fill:#000000;fill-opacity:1;stroke:#000000;stroke-width:0.7;stroke-linecap:round;stroke-linejoin:round;stroke-dasharray:none;stroke-opacity:1"
           d="M 80.868653,82.323 H 92.144581"
           id="path12" />
      </g>
      <g
         id="g14"
         transform="matrix(1,0,-0.35265397,1,35.876817,20.16219)">
        <rect
           style="fill:#000000;fill-opacity:1;stroke:#000000;stroke-width:0.741442;stroke-linecap:butt;stroke-linejoin:round;stroke-dasharray:none;stroke-opacity:1"
           id="rect12"
           width="2.7585583"
           height="14.683558"
           x="84.657883"
           y="82.344147" />
        <path
           style="fill:#000000;fill-opacity:1;stroke:#000000;stroke-width:0.7;stroke-linecap:round;stroke-linejoin:round;stroke-dasharray:none;stroke-opacity:1"
           d="m 85.945128,97.048548 h 9.598701"
           id="path14" />
        <rect
           style="fill:#000000;fill-opacity:1;stroke:#000000;stroke-width:0.84713;stroke-linecap:butt;stroke-linejoin:round;stroke-dasharray:none;stroke-opacity:1"
           id="rect15"
           width="2.7585583"
           height="19.168024"
           x="15.868544"
           y="107.43278"
           transform="matrix(1,0,0.64278761,0.76604444,0,0)" />
      </g>
      <g
         id="g20"
         transform="matrix(0.99977043,0,-0.17810085,1.0100601,37.658914,-1.0259692)">
        <g
           id="g17"
           transform="matrix(1,0,0,-1,1.6047172,199.38243)">
          <rect
             style="fill:#000000;fill-opacity:1;stroke:#000000;stroke-width:0.741442;stroke-linecap:butt;stroke-linejoin:round;stroke-dasharray:none;stroke-opacity:1"
             id="rect17"
             width="2.7585583"
             height="14.683558"
             x="84.657883"
             y="82.344147" />
          <path
             style="fill:#000000;fill-opacity:1;stroke:#000000;stroke-width:0.7;stroke-linecap:round;stroke-linejoin:round;stroke-dasharray:none;stroke-opacity:1"
             d="m 84.807133,82.323 h 3.575769"
             id="path17" />
        </g>
        <g
           id="g19"
           transform="matrix(-1,0,0,1,186.75282,20.011)">
          <rect
             style="fill:#000000;fill-opacity:1;stroke:#000000;stroke-width:0.741442;stroke-linecap:butt;stroke-linejoin:round;stroke-dasharray:none;stroke-opacity:1"
             id="rect18"
             width="2.7585583"
             height="14.683558"
             x="84.657883"
             y="82.344147" />
          <path
             style="fill:#000000;fill-opacity:1;stroke:#000000;stroke-width:0.7;stroke-linecap:round;stroke-linejoin:round;stroke-dasharray:none;stroke-opacity:1"
             d="m 84.807133,82.323 h 3.575769"
             id="path18" />
        </g>
        <rect
           style="fill:#000000;fill-opacity:1;stroke:#000000;stroke-width:0.832557;stroke-linecap:butt;stroke-linejoin:round;stroke-dasharray:none;stroke-opacity:1"
           id="rect19"
           width="2.7580578"
           height="18.517515"
           x="-12.89594"
           y="128.33896"
           transform="matrix(-1,0,0.60367356,0.79723161,0,0)" />
      </g>
      <g
         id="g21"
         transform="matrix(-0.99977043,0,-0.17810085,1.0100601,221.0002,19.186343)">
        <rect
           style="fill:#000000;fill-opacity:1;stroke:#000000;stroke-width:0.741442;stroke-linecap:butt;stroke-linejoin:round;stroke-dasharray:none;stroke-opacity:1"
           id="rect20"
           width="2.7585583"
           height="14.683558"
           x="84.657883"
           y="82.344147" />
        <path
           style="fill:#000000;fill-opacity:1;stroke:#000000;stroke-width:0.7;stroke-linecap:round;stroke-linejoin:round;stroke-dasharray:none;stroke-opacity:1"
           d="m 84.807133,82.323 h 3.575769"
           id="path20" />
        <path
           style="fill:#000000;fill-opacity:1;stroke:#000000;stroke-width:0.7;stroke-linecap:round;stroke-linejoin:round;stroke-dasharray:none;stroke-opacity:1"
           d="M 77.574251,82.323 H 81.15002"
           id="path22" />
        <rect
           style="fill:#000000;fill-opacity:1;stroke:#000000;stroke-width:0.624407;stroke-linecap:butt;stroke-linejoin:round;stroke-dasharray:none;stroke-opacity:1"
           id="rect22"
           width="2.9524939"
           height="9.729845"
           x="-40.488449"
           y="143.42792"
           transform="matrix(1.0002296,0,-0.64293521,0.75841472,215.1307,-18.995249)" />
        <rect
           style="fill:#000000;fill-opacity:1;stroke:#000000;stroke-width:0.599273;stroke-linecap:butt;stroke-linejoin:round;stroke-dasharray:none;stroke-opacity:1"
           id="rect21"
           width="2.9627142"
           height="8.931365"
           x="-211.06383"
           y="125.76691"
           transform="matrix(1.0002296,0,0.58262989,0.80473773,215.1307,-18.995249)" />
      </g>
      <g
         id="g1">
        <circle
           style="fill:none;stroke:#000000;stroke-width:2.64567;stroke-linecap:round;stroke-linejoin:round"
           id="path1"
           cx="337.86832"
           cy="343.58521"
           r="28.470121"
           transform="matrix(0.27372196,0,0,0.27372196,-3.5959365,-3.9567009)" />
        <path
           style="fill:#000000;fill-opacity:1;stroke:none;stroke-width:1.7003;stroke-dasharray:none;stroke-opacity:1"
           d="m 81.923828,81.162109 c -0.630522,0.0041 -1.416849,0.109047 -2.279297,0.410157 -1.049713,0.365152 -2.235469,1.070326 -3.1875,2.27539 -1.012502,1.343916 -1.572916,3.038986 -1.589844,4.828125 -5.31e-4,0.03553 -0.0019,0.07187 -0.002,0.107422 -0.0061,3.546595 2.380864,6.257423 4.597657,7.181641 1.174455,0.460149 2.224288,0.561275 2.9375,0.523437 0.03365,-0.0017 0.06714,-0.0035 0.09961,-0.0059 0.03247,0.0023 0.06596,0.0041 0.09961,0.0059 0.713212,0.03784 1.763045,-0.06329 2.9375,-0.523437 2.216793,-0.924218 4.60373,-3.635046 4.597657,-7.181641 -6.1e-5,-0.03556 -0.0014,-0.07189 -0.002,-0.107422 -0.01693,-1.789139 -0.577341,-3.484209 -1.589843,-4.828125 -0.952031,-1.205064 -2.137787,-1.910238 -3.1875,-2.27539 C 84.205538,81.170786 83.189248,81.117885 82.5,81.1875 c -0.172312,-0.0174 -0.365998,-0.02676 -0.576172,-0.02539 z M 82.5,82.683594 c 0.51615,0.251755 1.200195,0.586318 1.832031,1.017578 0.658351,0.454661 1.362975,1.076198 1.806641,1.845703 0.520595,0.826259 0.762099,1.926514 0.810547,3.197266 6.93e-4,0.02181 0.0015,0.04453 0.002,0.06641 0.04391,2.262938 -1.231139,4.120068 -2.527344,5.033203 -0.666275,0.483517 -1.393531,0.868498 -1.923828,1.154297 -0.530297,-0.285799 -1.257553,-0.67078 -1.923828,-1.154297 -1.296205,-0.913135 -2.571259,-2.770265 -2.527344,-5.033203 4.25e-4,-0.02187 0.0013,-0.04459 0.002,-0.06641 0.04845,-1.270752 0.289952,-2.371007 0.810547,-3.197266 0.443666,-0.769505 1.14829,-1.391042 1.806641,-1.845703 0.631836,-0.43126 1.315881,-0.765823 1.832031,-1.017578 z"
           id="path6"
           inkscape:path-effect="#path-effect7;#path-effect8"
           inkscape:original-d="m 83.767696,81.76947 c 0,0 -7.160639,-0.01872 -7.309297,6.941204 -0.146466,6.857317 7.256711,7.256711 7.256711,7.256711"
           sodipodi:nodetypes="csc"
           transform="matrix(1,0,0,1.031652,6.3924788,-1.518157)" />
      </g>
      <g
         id="g9"
         transform="matrix(1,0,-0.17632698,1,32.246582,0.30177571)">
        <rect
           style="fill:#000000;fill-opacity:1;stroke:#000000;stroke-width:0.741442;stroke-linecap:butt;stroke-linejoin:round;stroke-dasharray:none;stroke-opacity:1"
           id="rect9"
           width="2.7585583"
           height="14.683558"
           x="84.657883"
           y="82.344147" />
        <path
           style="fill:#000000;fill-opacity:1;stroke:#000000;stroke-width:0.7;stroke-linecap:round;stroke-linejoin:round;stroke-dasharray:none;stroke-opacity:1"
           d="m 84.807133,82.323 h 3.575769"
           id="path9" />
      </g>
      <g
         id="g10"
         transform="matrix(1,0,-0.17632698,1,43.476991,0.30199999)">
        <rect
           style="fill:#000000;fill-opacity:1;stroke:#000000;stroke-width:0.741442;stroke-linecap:butt;stroke-linejoin:round;stroke-dasharray:none;stroke-opacity:1"
           id="rect10"
           width="2.7585583"
           height="14.683558"
           x="84.657883"
           y="82.344147" />
        <path
           style="fill:#000000;fill-opacity:1;stroke:#000000;stroke-width:0.7;stroke-linecap:round;stroke-linejoin:round;stroke-dasharray:none;stroke-opacity:1"
           d="m 84.807133,82.323 h 3.575769"
           id="path10" />
        <path
           style="fill:#000000;fill-opacity:1;stroke:#000000;stroke-width:0.7;stroke-linecap:round;stroke-linejoin:round;stroke-dasharray:none;stroke-opacity:1"
           d="m 85.945128,97.048548 h 9.598701"
           id="path11" />
      </g>
    </g>
  </g>
</svg>
